<?xml version="1.0" encoding="UTF-8"?>
<!DOCTYPE svg PUBLIC "-//W3C//DTD SVG 1.1//EN" "http://www.w3.org/Graphics/SVG/1.1/DTD/svg11.dtd">
<svg version="1.2" width="218mm" height="116mm" viewBox="1619 5801 21800 11600" preserveAspectRatio="xMidYMid" fill-rule="evenodd" stroke-width="28.222" stroke-linejoin="round" xmlns="http://www.w3.org/2000/svg" xmlns:ooo="http://xml.openoffice.org/svg/export" xmlns:xlink="http://www.w3.org/1999/xlink" xmlns:presentation="http://sun.com/xmlns/staroffice/presentation" xmlns:smil="http://www.w3.org/2001/SMIL20/" xmlns:anim="urn:oasis:names:tc:opendocument:xmlns:animation:1.0" xml:space="preserve">
 <defs class="ClipPathGroup">
  <clipPath id="presentation_clip_path" clipPathUnits="userSpaceOnUse">
   <rect x="1619" y="5801" width="21800" height="11600"/>
  </clipPath>
  <clipPath id="presentation_clip_path_shrink" clipPathUnits="userSpaceOnUse">
   <rect x="1640" y="5812" width="21757" height="11577"/>
  </clipPath>
 </defs>
 <defs class="TextShapeIndex">
  <g ooo:slide="id1" ooo:id-list="id3 id4 id5 id6 id7 id8 id9 id10 id11 id12 id13 id14 id15 id16 id17 id18 id19 id20 id21 id22 id23 id24 id25 id26"/>
 </defs>
 <defs class="EmbeddedBulletChars">
  <g id="bullet-char-template(57356)" transform="scale(0.00048828125,-0.00048828125)">
   <path d="M 580,1141 L 1163,571 580,0 -4,571 580,1141 Z"/>
  </g>
  <g id="bullet-char-template(57354)" transform="scale(0.00048828125,-0.00048828125)">
   <path d="M 8,1128 L 1137,1128 1137,0 8,0 8,1128 Z"/>
  </g>
  <g id="bullet-char-template(10146)" transform="scale(0.00048828125,-0.00048828125)">
   <path d="M 174,0 L 602,739 174,1481 1456,739 174,0 Z M 1358,739 L 309,1346 659,739 1358,739 Z"/>
  </g>
  <g id="bullet-char-template(10132)" transform="scale(0.00048828125,-0.00048828125)">
   <path d="M 2015,739 L 1276,0 717,0 1260,543 174,543 174,936 1260,936 717,1481 1274,1481 2015,739 Z"/>
  </g>
  <g id="bullet-char-template(10007)" transform="scale(0.00048828125,-0.00048828125)">
   <path d="M 0,-2 C -7,14 -16,27 -25,37 L 356,567 C 262,823 215,952 215,954 215,979 228,992 255,992 264,992 276,990 289,987 310,991 331,999 354,1012 L 381,999 492,748 772,1049 836,1024 860,1049 C 881,1039 901,1025 922,1006 886,937 835,863 770,784 769,783 710,716 594,584 L 774,223 C 774,196 753,168 711,139 L 727,119 C 717,90 699,76 672,76 641,76 570,178 457,381 L 164,-76 C 142,-110 111,-127 72,-127 30,-127 9,-110 8,-76 1,-67 -2,-52 -2,-32 -2,-23 -1,-13 0,-2 Z"/>
  </g>
  <g id="bullet-char-template(10004)" transform="scale(0.00048828125,-0.00048828125)">
   <path d="M 285,-33 C 182,-33 111,30 74,156 52,228 41,333 41,471 41,549 55,616 82,672 116,743 169,778 240,778 293,778 328,747 346,684 L 369,508 C 377,444 397,411 428,410 L 1163,1116 C 1174,1127 1196,1133 1229,1133 1271,1133 1292,1118 1292,1087 L 1292,965 C 1292,929 1282,901 1262,881 L 442,47 C 390,-6 338,-33 285,-33 Z"/>
  </g>
  <g id="bullet-char-template(9679)" transform="scale(0.00048828125,-0.00048828125)">
   <path d="M 813,0 C 632,0 489,54 383,161 276,268 223,411 223,592 223,773 276,916 383,1023 489,1130 632,1184 813,1184 992,1184 1136,1130 1245,1023 1353,916 1407,772 1407,592 1407,412 1353,268 1245,161 1136,54 992,0 813,0 Z"/>
  </g>
  <g id="bullet-char-template(8226)" transform="scale(0.00048828125,-0.00048828125)">
   <path d="M 346,457 C 273,457 209,483 155,535 101,586 74,649 74,723 74,796 101,859 155,911 209,963 273,989 346,989 419,989 480,963 531,910 582,859 608,796 608,723 608,648 583,586 532,535 482,483 420,457 346,457 Z"/>
  </g>
  <g id="bullet-char-template(8211)" transform="scale(0.00048828125,-0.00048828125)">
   <path d="M -4,459 L 1135,459 1135,606 -4,606 -4,459 Z"/>
  </g>
  <g id="bullet-char-template(61548)" transform="scale(0.00048828125,-0.00048828125)">
   <path d="M 173,740 C 173,903 231,1043 346,1159 462,1274 601,1332 765,1332 928,1332 1067,1274 1183,1159 1299,1043 1357,903 1357,740 1357,577 1299,437 1183,322 1067,206 928,148 765,148 601,148 462,206 346,322 231,437 173,577 173,740 Z"/>
  </g>
 </defs>
 <defs class="TextEmbeddedBitmaps"/>
 <g class="SlideGroup">
  <g>
   <g id="container-id1">
    <g id="id1" class="Slide" clip-path="url(#presentation_clip_path)">
     <g class="Page">
      <g class="com.sun.star.drawing.ClosedBezierShape">
       <g id="id3">
        <rect class="BoundingBox" stroke="none" fill="none" x="5696" y="5833" width="1180" height="11525"/>
        <path fill="rgb(37,54,81)" stroke="none" d="M 6719,5834 L 5852,5834 C 5763,5834 5696,5901 5696,5990 L 5696,16001 5696,17201 C 5696,17289 5763,17356 5852,17356 L 6719,17356 C 6796,17356 6874,17289 6874,17201 L 6874,16345 6874,5990 C 6874,5901 6796,5834 6719,5834 Z"/>
       </g>
      </g>
      <g class="com.sun.star.drawing.ClosedBezierShape">
       <g id="id4">
        <rect class="BoundingBox" stroke="none" fill="none" x="11807" y="5833" width="3002" height="11536"/>
        <path fill="rgb(37,54,81)" stroke="none" d="M 14707,5834 L 12919,5834 11963,5834 C 11874,5834 11807,5901 11807,5990 L 11807,16001 11807,17201 C 11807,17289 11874,17356 11963,17356 L 14641,17367 C 14730,17367 14807,17301 14807,17212 L 14807,16412 C 14807,16323 14730,16256 14641,16256 L 12963,16256 12963,12034 14330,12034 C 14407,12034 14474,11956 14474,11878 L 14474,11312 C 14474,11223 14407,11156 14330,11156 L 12963,11156 12963,6945 14707,6945 C 14763,6945 14807,6901 14807,6845 L 14807,5934 C 14807,5878 14763,5834 14707,5834 Z"/>
       </g>
      </g>
      <g class="com.sun.star.drawing.ClosedBezierShape">
       <g id="id5">
        <rect class="BoundingBox" stroke="none" fill="none" x="7729" y="5822" width="3213" height="11547"/>
        <path fill="rgb(37,54,81)" stroke="none" d="M 9785,7945 L 9785,11156 8896,11156 8896,7423 8896,7378 C 8919,7156 9107,6990 9330,6990 9574,6990 9774,7190 9774,7423 L 9785,7423 9785,7945 Z M 10941,17212 L 10941,8278 10941,7423 C 10941,7412 10941,7401 10941,7390 10930,6678 10441,6078 9785,5890 9630,5845 9485,5823 9330,5823 9174,5823 9030,5845 8896,5890 8885,5890 8874,5890 8863,5901 8852,5901 8841,5901 8841,5901 8819,5912 8796,5923 8774,5923 8741,5934 8707,5956 8685,5967 8663,5967 8652,5978 8641,5978 8607,6001 8585,6012 8552,6034 8541,6034 8530,6034 8530,6045 8052,6323 7730,6834 7730,7423 L 7730,7823 7730,17212 C 7730,17301 7796,17367 7885,17367 L 8741,17367 C 8830,17367 8896,17301 8896,17212 L 8896,12034 9785,12034 9785,17212 C 9785,17301 9852,17367 9930,17367 L 10785,17367 C 10874,17367 10941,17301 10941,17212 Z"/>
       </g>
      </g>
      <g class="com.sun.star.drawing.ClosedBezierShape">
       <g id="id6">
        <rect class="BoundingBox" stroke="none" fill="none" x="1618" y="5822" width="3213" height="11547"/>
        <path fill="rgb(37,54,81)" stroke="none" d="M 4830,13401 L 4830,13267 C 4830,12712 4596,11967 4263,11523 L 3141,10034 C 2963,9790 2796,9290 2785,8990 L 2785,7434 C 2785,7201 2963,7001 3196,6978 3463,6967 3674,7167 3674,7423 L 3674,7456 3674,7467 3674,7878 3674,7978 3674,8190 C 3674,8278 3741,8345 3830,8345 L 4674,8345 C 4763,8345 4830,8278 4830,8190 L 4830,7467 C 4830,7456 4830,7445 4830,7434 4830,7423 4830,7423 4830,7423 4830,6534 4119,5823 3219,5823 2341,5823 1619,6534 1619,7423 1619,7434 1619,8990 1619,8990 1619,9545 1874,10290 2196,10734 L 3330,12223 C 3507,12456 3674,12967 3674,13267 L 3674,13401 3674,14212 3674,15245 3674,15767 C 3674,16045 3396,16278 3074,16178 2896,16123 2785,15945 2785,15767 L 2785,15367 2785,15234 2785,15001 C 2785,14923 2719,14845 2630,14845 L 1774,14845 C 1696,14845 1619,14923 1619,15001 L 1619,15367 1619,15545 1619,15767 C 1619,15801 1630,15845 1630,15890 1630,15890 1630,15901 1630,15912 1630,15945 1641,15990 1641,16023 1641,16034 1641,16034 1652,16045 1663,16123 1685,16201 1707,16278 L 1707,16289 C 1730,16334 1741,16367 1752,16401 L 1763,16412 C 1796,16489 1830,16556 1874,16623 1874,16634 1874,16634 1885,16634 1907,16667 1930,16701 1952,16734 L 1974,16756 C 2019,16823 2063,16878 2119,16923 2407,17201 2796,17367 3219,17367 3385,17367 3530,17345 3674,17301 3796,17267 3907,17212 4019,17156 L 4030,17156 C 4096,17112 4163,17067 4230,17012 4263,16989 4296,16956 4319,16934 4330,16934 4330,16934 4330,16923 4385,16878 4441,16812 4485,16756 4496,16756 4496,16745 4496,16745 4519,16712 4541,16678 4563,16645 L 4574,16645 C 4596,16612 4607,16578 4630,16545 L 4630,16534 C 4652,16501 4674,16467 4685,16434 4685,16423 4696,16423 4696,16412 4707,16378 4730,16345 4741,16312 L 4741,16301 C 4752,16267 4763,16234 4774,16201 4774,16190 4774,16190 4774,16178 4785,16145 4796,16101 4807,16067 4807,16056 4807,16056 4807,16045 4819,16012 4819,15967 4819,15934 4819,15934 4830,15934 4830,15923 4830,15890 4830,15845 4830,15812 4830,15801 4830,15801 4830,15801 4830,15790 4830,15778 4830,15767 L 4830,15634 4830,14901 4830,13401 Z"/>
       </g>
      </g>
      <g class="com.sun.star.drawing.ClosedBezierShape">
       <g id="id7">
        <rect class="BoundingBox" stroke="none" fill="none" x="16874" y="5811" width="1090" height="2347"/>
        <path fill="rgb(37,54,81)" stroke="none" d="M 17430,7923 C 17619,7923 17707,7812 17707,7590 L 17707,6378 C 17707,6167 17619,6045 17430,6045 L 17141,6045 17141,7923 17430,7923 Z M 17441,5812 C 17796,5812 17963,6034 17963,6390 L 17963,7578 C 17963,7945 17796,8156 17441,8156 L 16874,8156 16874,5812 17441,5812 Z"/>
       </g>
      </g>
      <g class="com.sun.star.drawing.PolyPolygonShape">
       <g id="id8">
        <rect class="BoundingBox" stroke="none" fill="none" x="18218" y="5811" width="1280" height="2347"/>
        <path fill="rgb(37,54,81)" stroke="none" d="M 18574,7467 L 19107,7467 18852,6101 18574,7467 Z M 18541,7690 L 18452,8156 18219,8156 18663,5812 19052,5812 19496,8156 19241,8156 19152,7690 18541,7690 Z"/>
       </g>
      </g>
      <g class="com.sun.star.drawing.PolyPolygonShape">
       <g id="id9">
        <rect class="BoundingBox" stroke="none" fill="none" x="19774" y="5811" width="946" height="2347"/>
        <path fill="rgb(37,54,81)" stroke="none" d="M 19774,8156 L 19774,5812 20041,5812 20041,7923 20719,7923 20719,8156 19774,8156 Z"/>
       </g>
      </g>
      <g class="com.sun.star.drawing.PolyPolygonShape">
       <g id="id10">
        <rect class="BoundingBox" stroke="none" fill="none" x="20985" y="5811" width="946" height="2347"/>
        <path fill="rgb(37,54,81)" stroke="none" d="M 20985,8156 L 20985,5812 21252,5812 21252,7923 21930,7923 21930,8156 20985,8156 Z"/>
       </g>
      </g>
      <g class="com.sun.star.drawing.PolyPolygonShape">
       <g id="id11">
        <rect class="BoundingBox" stroke="none" fill="none" x="22129" y="5811" width="1291" height="2347"/>
        <path fill="rgb(37,54,81)" stroke="none" d="M 22496,7467 L 23030,7467 22763,6101 22496,7467 Z M 22463,7690 L 22374,8156 22130,8156 22596,5812 22974,5812 23419,8156 23152,8156 23063,7690 22463,7690 Z"/>
       </g>
      </g>
      <g class="com.sun.star.drawing.ClosedBezierShape">
       <g id="id12">
        <rect class="BoundingBox" stroke="none" fill="none" x="16874" y="8878" width="1057" height="2357"/>
        <path fill="rgb(37,54,81)" stroke="none" d="M 17363,10067 C 17574,10067 17663,9978 17663,9756 L 17663,9445 C 17663,9223 17585,9112 17385,9112 L 17141,9112 17141,10067 17363,10067 Z M 17385,8878 C 17763,8878 17930,9090 17930,9456 L 17930,9745 C 17930,10112 17752,10301 17363,10301 L 17141,10301 17141,11234 16874,11234 16874,8878 17385,8878 Z"/>
       </g>
      </g>
      <g class="com.sun.star.drawing.PolyPolygonShape">
       <g id="id13">
        <rect class="BoundingBox" stroke="none" fill="none" x="18096" y="8878" width="1280" height="2357"/>
        <path fill="rgb(37,54,81)" stroke="none" d="M 18452,10534 L 18985,10534 18719,9167 18452,10534 Z M 18419,10756 L 18330,11234 18096,11234 18541,8878 18930,8878 19374,11234 19119,11234 19030,10756 18419,10756 Z"/>
       </g>
      </g>
      <g class="com.sun.star.drawing.ClosedBezierShape">
       <g id="id14">
        <rect class="BoundingBox" stroke="none" fill="none" x="19651" y="8878" width="1113" height="2357"/>
        <path fill="rgb(37,54,81)" stroke="none" d="M 20119,9990 C 20330,9990 20452,9923 20452,9667 L 20452,9445 C 20452,9223 20374,9112 20174,9112 L 19930,9112 19930,9990 20119,9990 Z M 20185,8878 C 20552,8878 20707,9067 20707,9423 L 20707,9612 C 20707,9867 20619,10034 20419,10101 20630,10156 20707,10334 20707,10578 L 20707,10945 C 20707,11056 20719,11145 20763,11234 L 20496,11234 C 20463,11167 20452,11101 20452,10945 L 20452,10578 C 20452,10312 20330,10234 20107,10234 L 19930,10234 19930,11234 19652,11234 19652,8878 20185,8878 Z"/>
       </g>
      </g>
      <g class="com.sun.star.drawing.PolyPolygonShape">
       <g id="id15">
        <rect class="BoundingBox" stroke="none" fill="none" x="20962" y="8878" width="1136" height="2357"/>
        <path fill="rgb(37,54,81)" stroke="none" d="M 21396,11234 L 21396,9112 20963,9112 20963,8878 22096,8878 22096,9112 21663,9112 21663,11234 21396,11234 Z"/>
       </g>
      </g>
      <g class="com.sun.star.drawing.PolyPolygonShape">
       <g id="id16">
        <rect class="BoundingBox" stroke="none" fill="none" x="22340" y="8878" width="980" height="2357"/>
        <path fill="rgb(37,54,81)" stroke="none" d="M 23185,9923 L 23185,10156 22619,10156 22619,10990 23319,10990 23319,11234 22341,11234 22341,8878 23319,8878 23319,9112 22619,9112 22619,9923 23185,9923 Z"/>
       </g>
      </g>
      <g class="com.sun.star.drawing.ClosedBezierShape">
       <g id="id17">
        <rect class="BoundingBox" stroke="none" fill="none" x="16874" y="11945" width="1090" height="2357"/>
        <path fill="rgb(37,54,81)" stroke="none" d="M 17430,14056 C 17619,14056 17707,13934 17707,13723 L 17707,12512 C 17707,12301 17619,12178 17430,12178 L 17141,12178 17141,14056 17430,14056 Z M 17441,11945 C 17796,11945 17963,12167 17963,12523 L 17963,13712 C 17963,14078 17796,14301 17441,14301 L 16874,14301 16874,11945 17441,11945 Z"/>
       </g>
      </g>
      <g class="com.sun.star.drawing.PolyPolygonShape">
       <g id="id18">
        <rect class="BoundingBox" stroke="none" fill="none" x="18285" y="11945" width="268" height="2357"/>
        <path fill="rgb(37,54,81)" stroke="none" d="M 18285,14301 L 18552,14301 18552,11945 18285,11945 18285,14301 Z"/>
       </g>
      </g>
      <g class="com.sun.star.drawing.ClosedBezierShape">
       <g id="id19">
        <rect class="BoundingBox" stroke="none" fill="none" x="19474" y="11922" width="1068" height="2402"/>
        <path fill="rgb(37,54,81)" stroke="none" d="M 20541,12523 L 20541,12734 20296,12734 20296,12512 C 20296,12301 20207,12167 20019,12167 19819,12167 19741,12301 19741,12512 L 19741,13745 C 19741,13956 19819,14078 20019,14078 20207,14078 20296,13956 20296,13745 L 20296,13445 20541,13445 20541,13734 C 20541,14090 20374,14323 20019,14323 19652,14323 19474,14090 19474,13734 L 19474,12523 C 19474,12167 19652,11923 20019,11923 20374,11923 20541,12167 20541,12523 Z"/>
       </g>
      </g>
      <g class="com.sun.star.drawing.PolyPolygonShape">
       <g id="id20">
        <rect class="BoundingBox" stroke="none" fill="none" x="20851" y="11945" width="1113" height="2357"/>
        <path fill="rgb(37,54,81)" stroke="none" d="M 21130,13234 L 21130,14301 20852,14301 20852,11945 21130,11945 21130,13001 21696,13001 21696,11945 21963,11945 21963,14301 21696,14301 21696,13234 21130,13234 Z"/>
       </g>
      </g>
      <g class="com.sun.star.drawing.PolyPolygonShape">
       <g id="id21">
        <rect class="BoundingBox" stroke="none" fill="none" x="22307" y="11945" width="269" height="2357"/>
        <path fill="rgb(37,54,81)" stroke="none" d="M 22307,14301 L 22574,14301 22574,11945 22307,11945 22307,14301 Z"/>
       </g>
      </g>
      <g class="com.sun.star.drawing.ClosedBezierShape">
       <g id="id22">
        <rect class="BoundingBox" stroke="none" fill="none" x="16851" y="14989" width="1069" height="2402"/>
        <path fill="rgb(37,54,81)" stroke="none" d="M 17919,15578 L 17919,15790 17663,15790 17663,15567 C 17663,15356 17574,15223 17385,15223 17196,15223 17119,15356 17119,15567 L 17119,16812 C 17119,17023 17196,17156 17385,17156 17574,17156 17663,17023 17663,16812 L 17663,16501 17919,16501 17919,16801 C 17919,17156 17741,17389 17385,17389 17019,17389 16852,17156 16852,16801 L 16852,15578 C 16852,15223 17019,14990 17385,14990 17741,14990 17919,15223 17919,15578 Z"/>
       </g>
      </g>
      <g class="com.sun.star.drawing.ClosedBezierShape">
       <g id="id23">
        <rect class="BoundingBox" stroke="none" fill="none" x="18229" y="15011" width="1113" height="2358"/>
        <path fill="rgb(37,54,81)" stroke="none" d="M 18685,16112 C 18907,16112 19030,16045 19030,15801 L 19030,15567 C 19030,15356 18952,15245 18763,15245 L 18496,15245 18496,16112 18685,16112 Z M 18763,15012 C 19130,15012 19285,15201 19285,15545 L 19285,15734 C 19285,16001 19196,16156 18996,16223 19207,16278 19285,16467 19285,16723 L 19285,17089 C 19285,17189 19296,17289 19341,17367 L 19074,17367 C 19041,17301 19030,17234 19030,17078 L 19030,16712 C 19030,16445 18907,16367 18674,16367 L 18496,16367 18496,17367 18230,17367 18230,15012 18763,15012 Z"/>
       </g>
      </g>
      <g class="com.sun.star.drawing.PolyPolygonShape">
       <g id="id24">
        <rect class="BoundingBox" stroke="none" fill="none" x="19629" y="15011" width="980" height="2358"/>
        <path fill="rgb(37,54,81)" stroke="none" d="M 20474,16045 L 20474,16278 19907,16278 19907,17123 20607,17123 20607,17367 19630,17367 19630,15012 20607,15012 20607,15245 19907,15245 19907,16045 20474,16045 Z"/>
       </g>
      </g>
      <g class="com.sun.star.drawing.PolyPolygonShape">
       <g id="id25">
        <rect class="BoundingBox" stroke="none" fill="none" x="20851" y="15011" width="1291" height="2358"/>
        <path fill="rgb(37,54,81)" stroke="none" d="M 21219,16667 L 21752,16667 21485,15312 21219,16667 Z M 21185,16889 L 21096,17367 20852,17367 21319,15012 21696,15012 22141,17367 21874,17367 21785,16889 21185,16889 Z"/>
       </g>
      </g>
      <g class="com.sun.star.drawing.PolyPolygonShape">
       <g id="id26">
        <rect class="BoundingBox" stroke="none" fill="none" x="15885" y="5800" width="113" height="11602"/>
        <path fill="rgb(37,54,81)" stroke="none" d="M 15885,17401 L 15996,17401 15996,5801 15885,5801 15885,17401 Z"/>
       </g>
      </g>
     </g>
    </g>
   </g>
  </g>
 </g>
</svg>